<!-- icon666.com - MILLIONS vector ICONS FREE -->
<svg width="24px" height="24px" viewBox="0 0 32 32" xmlns="http://www.w3.org/2000/svg">
	<g id="Layer_22" data-name="Layer 22" fill="rgb(238,32,77)">
		<path d="m21 12.46-3.59 3.54 3.59 3.54a1 1 0 0 1 0 1.46 1 1 0 0 1 -.71.29 1 1 0 0 1 -.7-.29l-3.59-3.59-3.54 3.59a1 1 0 0 1 -.7.29 1 1 0 0 1 -.71-.29 1 1 0 0 1 0-1.41l3.54-3.59-3.54-3.54a1 1 0 0 1 1.41-1.41l3.54 3.54 3.54-3.54a1 1 0 0 1 1.46 1.41zm4.9 13.44a14 14 0 1 1 0-19.8 14 14 0 0 1 0 19.8zm-1.41-18.39a12 12 0 1 0 0 17 12 12 0 0 0 0-17z"/>
	</g>
</svg>
