<!-- icon666.com - MILLIONS vector ICONS FREE --><svg width="24px" height="24px" viewBox="0 0 24 24" xmlns="http://www.w3.org/2000/svg"><g fill="rgb(238,32,77)"><path clip-rule="evenodd" d="m12 1.25c-2.62335 0-4.75 2.12665-4.75 4.75v.25h-3.25c-.41421 0-.75.33579-.75.75s.33579.75.75.75h16c.4142 0 .75-.33579.75-.75s-.3358-.75-.75-.75h-3.25v-.25c0-2.62335-2.1266-4.75-4.75-4.75zm0 1.5c1.7949 0 3.25 1.45507 3.25 3.25v.25h-6.5v-.25c0-1.79493 1.4551-3.25 3.25-3.25z" fill-rule="evenodd"></path><path d="m5.74664 8.92906c-.03918-.41236-.40522-.71488-.81758-.6757s-.71488.40522-.6757.81758c.09447.99426.26497 2.21936.48412 3.79416l.28155 2.023c.26916 1.9348.42182 3.032.75206 3.9309.61461 1.6728 1.71096 3.0138 3.12097 3.6088.76567.3231 1.64144.3228 2.94524.3222h.3254c1.3038.0006 2.1796.0009 2.9452-.3222 1.41-.595 2.5064-1.936 3.121-3.6088.3303-.8989.4829-1.9961.7521-3.9309l.2815-2.023c.2192-1.5748.3897-2.7999.4841-3.79416.0392-.41236-.2633-.7784-.6757-.81758-.4123-.03918-.7784.26334-.8175.6757-.0911.95796-.2569 2.15094-.479 3.74704l-.2624 1.885c-.2905 2.0877-.4236 3.0125-.6911 3.7406-.5159 1.4041-1.3737 2.3549-2.2961 2.7441-.4502.19-.9956.2042-2.5248.2042s-2.07456-.0142-2.52476-.2042c-.92245-.3892-1.78028-1.34-2.29617-2.7441-.26751-.7281-.40056-1.6529-.69109-3.7406l-.26234-1.885c-.22212-1.5961-.38798-2.78907-.479-3.74704z"></path><path d="m10.75 10c0-.41421-.3358-.75-.75-.75-.41421 0-.75.33579-.75.75v8c0 .4142.33579.75.75.75.4142 0 .75-.3358.75-.75z"></path><path d="m14.75 10c0-.41421-.3358-.75-.75-.75s-.75.33579-.75.75v8c0 .4142.3358.75.75.75s.75-.3358.75-.75z"></path></g></svg>