<!-- icon666.com - MILLIONS vector ICONS FREE --><svg viewBox="0 0 42.05 42.14" fill="#9966CC" width="24px" height="24px" xmlns="http://www.w3.org/2000/svg"><g id="Layer_2" data-name="Layer 2"><g id="Layer_1-2" data-name="Layer 1"><g id="Edit"><path id="_5" d="m16.13 42.09h-11.13a5 5 0 0 1 -5-5v-32.09a5 5 0 0 1 5-5h23.15a5 5 0 0 1 5 5v12.58a1.13 1.13 0 1 1 -2.25 0v-12.58a2.71 2.71 0 0 0 -2.72-2.71h-23.18a2.71 2.71 0 0 0 -2.74 2.71v32.12a2.71 2.71 0 0 0 2.74 2.71h11.13a1.13 1.13 0 0 1 0 2.26z" data-name="5"></path><path id="_4" d="m26.05 12.08h-19a1.13 1.13 0 1 1 0-2.25h19a1.13 1.13 0 0 1 0 2.25z" data-name="4"></path><path id="_3" d="m17.53 20.86h-10.45a1.13 1.13 0 0 1 0-2.26h10.45a1.13 1.13 0 0 1 0 2.26z" data-name="3"></path><path id="_2" d="m38.36 30.47a1.25 1.25 0 0 1 -.89-.37l-4.55-4.56a1.25 1.25 0 0 1 1.77-1.77l4.56 4.56a1.27 1.27 0 0 1 0 1.77 1.25 1.25 0 0 1 -.89.37z" data-name="2"></path><path id="_1" d="m20.88 42.14 1.27-7.6 12.67-12.67a3.08 3.08 0 0 1 4.35 0l2 2a3.08 3.08 0 0 1 0 4.35l-12.69 12.65zm3.61-6.44-.55 3.34 3.34-.56 12.11-12.1a.58.58 0 0 0 0-.81l-2-2a.58.58 0 0 0 -.81 0z" data-name="1"></path></g></g></g></svg>